<?xml version="1.0" encoding="utf-8"?>
<!-- Svg Vector Icons : http://www.onlinewebfonts.com/icon -->
<!DOCTYPE svg PUBLIC "-//W3C//DTD SVG 1.1//EN" "http://www.w3.org/Graphics/SVG/1.1/DTD/svg11.dtd">
<svg version="1.1" xmlns="http://www.w3.org/2000/svg" xmlns:xlink="http://www.w3.org/1999/xlink" x="0px" y="0px" viewBox="0 0 1000 1000" enable-background="new 0 0 1000 1000" xml:space="preserve">
<metadata> Svg Vector Icons : http://www.onlinewebfonts.com/icon </metadata>
<g><g fill="#1A7000" transform="translate(0.000000,511.000000) scale(0.100000,-0.100000)"><path d="M301,4476c-91.9-42.1-132.1-84.2-172.3-179.9c-24.9-61.3-28.7-446-28.7-3395.6c0-3192.7,1.9-3330.5,36.4-3403.2c40.2-88,103.4-151.2,179.9-179.9c36.4-15.3,574.2-21,1676.7-21c892,0,1627-3.8,1632.7-9.6c9.6-9.6-130.2-1012.5-147.4-1058.5c-5.7-17.2-97.6-23-363.7-23h-356l5.7-245l5.7-243.1l2224.1-5.7l2222.2-3.8l7.7,185.7c1.9,103.3,1.9,216.3-1.9,250.7l-5.7,61.3h-342.6c-187.6,0-344.5,5.7-350.3,15.3c-3.8,7.7-40.2,233.5-76.6,501.5c-38.3,268-74.6,507.2-78.5,530.2l-9.6,44h1634.6c1112.1,0,1653.7,5.7,1690.1,21c76.6,28.7,139.7,91.9,179.9,179.9c34.5,72.7,36.4,208.6,36.4,3407c0,3190.7-1.9,3334.3-36.4,3407c-42.1,91.9-84.2,132.1-179.9,172.3c-61.3,24.9-574.2,28.7-4687.5,28.7C555.5,4512.3,373.7,4510.4,301,4476z M9589.9,1388.6l3.8-2809.8H5000H406.2V1379c0,1540.8,5.7,2807.9,13.4,2813.7c5.7,7.7,2071,11.5,4588,9.6l4576.5-5.7L9589.9,1388.6z M9589.9-2056.7l-5.7-331.1H5000H415.8l-5.7,331.1l-3.8,329.2H5000h4593.7L9589.9-2056.7z M6062.3-2784.1c9.6-65.1,143.6-974.2,143.6-985.7c0-3.8-543.6-5.7-1207.8-5.7H3790.3l9.6,63.2c7.7,32.5,38.3,250.8,70.8,482.3c32.5,231.6,63.2,440.2,67,465.1l9.6,42.1H5000h1050.8L6062.3-2784.1z"/><path d="M712.5,1392.4V-1115H5000h4287.5v2507.4v2507.4H5000H712.5V1392.4z M4940.7,1849.9c49.8-17.2,57.4-28.7,47.9-63.2c-17.2-57.4-17.2-57.4-86.1-32.5c-176.1,61.3-331.1-44-269.9-181.8c13.4-28.7,74.7-70.8,170.4-118.7c168.4-82.3,235.4-158.9,235.4-269.9c0-80.4-53.6-178-122.5-222c-105.3-68.9-413.4-47.9-426.8,28.7c-11.5,63.2,21.1,76.6,109.1,45.9c170.4-59.3,313.9,1.9,313.9,134c0,88-28.7,118.7-191.4,195.2c-82.3,38.3-156.9,88.1-178,120.6c-47.9,67-51.7,172.3-9.6,252.7C4588.5,1846.1,4791.4,1901.6,4940.7,1849.9z M5784.8,1853.7c47.9-13.4,74.7-68.9,44-99.5c-7.6-7.7-53.6-5.7-97.6,5.7c-170.4,42.1-344.5-36.4-424.9-195.2c-40.2-78.5-32.5-285.2,15.3-375.2c61.3-120.6,157-170.4,310.1-166.5c68.9,0,141.7,5.7,162.7,9.6c30.6,3.8,38.3-5.7,38.3-42.1c0-53.6-45.9-70.8-210.5-74.6c-183.7-3.8-331.1,72.7-413.4,214.4c-38.3,68.9-45.9,105.3-45.9,252.7c0,153.1,5.7,181.8,53.6,262.2c57.4,97.6,126.3,155,237.3,197.1C5530.2,1869,5704.4,1876.7,5784.8,1853.7z M6450.9,1819.3c76.6-36.4,118.7-112.9,118.7-210.5c0-84.2-57.4-187.6-112.9-206.7c-40.2-11.5-55.5-47.9-21-47.9s78.5-91.9,122.5-256.5l44-164.6h-63.2c-57.4,0-65.1,7.7-82.3,72.7c-9.6,38.3-28.7,107.2-38.3,151.2c-32.5,124.4-74.6,162.7-189.5,174.2l-99.5,9.6v-204.8V933h-67h-67l3.8,455.5l5.7,453.6l86.1,11.5C6207.8,1870.9,6374.3,1853.7,6450.9,1819.3z M7511.2,1821.2c124.4-65.1,170.3-258.4,91.9-386.6c-49.8-82.3-172.3-135.9-300.5-137.8h-101.4v-181.8V933h-67h-67l3.8,455.5l5.7,453.6l76.6,13.4C7260.5,1872.9,7446.2,1853.7,7511.2,1821.2z M2014.1,1488.1c0-409.6-13.4-470.9-118.7-535.9c-65.1-40.2-212.5-51.7-262.2-21.1c-15.3,9.6-21.1,30.6-13.4,55.5c11.5,32.5,24.9,38.3,68.9,28.7c82.3-15.3,166.5,24.9,189.5,93.8c11.5,34.4,21.1,208.6,21.1,400v342.6h57.4h57.4V1488.1z M2762.5,1411.6c82.3-237.3,149.3-442.1,149.3-455.5c1.9-17.2-17.2-23-59.3-19.1c-57.4,5.7-63.2,13.4-107.2,145.5l-45.9,137.8h-166.5h-168.4l-42.1-143.6C2280.1,935,2278.2,933,2215,933H2150l156.9,459.4l157,461.3l74.6-5.7l76.6-5.7L2762.5,1411.6z M3120.4,1541.7c53.6-172.3,107.2-348.4,120.6-392.4l23-82.3l130.2,384.7c70.8,212.5,134,388.6,137.8,394.3c5.7,3.8,34.5,5.7,67,1.9l55.5-5.7l-162.7-453.6L3329,933h-68.9h-68.9l-141.6,436.4c-76.6,239.3-145.5,446-149.3,459.4c-5.7,15.3,11.5,23,55.5,23h67L3120.4,1541.7z M4228.6,1392.4L4385.6,933h-63.2c-65.1,0-67,3.8-111,139.7l-47.9,137.8h-168.4h-168.4l-45.9-137.8c-44-130.2-51.7-139.7-103.4-139.7c-30.6,0-55.5,7.7-55.5,17.2c0,11.5,216.3,654.6,296.7,878.5c3.8,13.4,40.2,23,80.4,23h72.7L4228.6,1392.4z M6856.6,1392.4V933h-57.4h-57.4v459.4v459.4h57.4h57.4V1392.4z M8387.9,1803.9c0-45.9-3.8-47.9-143.6-47.9h-143.6v-411.5V933h-57.4h-57.4v411.5v411.5h-143.6c-139.7,0-143.6,1.9-143.6,47.9v47.9h344.5h344.5V1803.9z"/><path d="M6142.7,1761.8c-7.7-5.7-13.4-90-13.4-183.7v-172.3l105.3,13.4c122.5,13.4,170.4,38.3,199.1,101.5c45.9,99.5,13.4,185.7-84.2,227.8C6280.5,1777.1,6163.7,1784.8,6142.7,1761.8z"/><path d="M7226.1,1761.8c-17.2-5.7-24.9-63.2-24.9-189.5v-179.9h86.1c191.4,0,289,134,210.5,287.1C7461.5,1752.3,7310.3,1796.3,7226.1,1761.8z"/><path d="M2477.3,1559c-34.5-99.5-65.1-195.2-72.7-212.5c-9.6-26.8,5.7-30.6,124.4-30.6c74.6,0,135.9,5.7,135.9,15.3c0,7.7-28.7,101.5-65.1,210.5l-63.2,197.2L2477.3,1559z"/><path d="M3924.3,1526.4l-68.9-210.5h139.7h141.6l-63.2,187.6c-34.5,101.5-67,197.2-70.8,210.5C3998.9,1727.4,3962.6,1643.2,3924.3,1526.4z"/></g></g>
</svg>