<?xml version="1.0" encoding="UTF-8" standalone="no"?>
<!DOCTYPE svg PUBLIC "-//W3C//DTD SVG 20010904//EN"
              "http://www.w3.org/TR/2001/REC-SVG-20010904/DTD/svg10.dtd">

<svg xmlns="http://www.w3.org/2000/svg"
     width="6.62222in" height="2.38889in"
     viewBox="0 0 596 215">
  <path id="Selection"
        fill="none" stroke="black" stroke-width="1"
        d="M 172.00,53.03
           C 171.96,54.81 171.99,64.40 170.00,64.00
             167.33,71.28 170.74,73.72 171.85,78.04
             172.04,79.56 171.98,81.43 171.85,83.00
             171.85,83.00 170.00,81.00 170.00,81.00
             170.00,81.00 169.00,81.00 169.00,81.00
             169.00,81.00 169.00,90.00 169.00,90.00
             169.00,90.00 170.00,90.00 170.00,90.00
             170.00,90.00 172.00,88.00 172.00,88.00
             172.00,88.00 169.00,103.00 169.00,103.00
             171.62,104.56 173.64,108.25 176.00,107.00
             176.00,107.00 177.00,112.00 177.00,112.00
             177.00,112.00 173.00,110.00 173.00,110.00
             173.00,110.00 170.00,115.00 170.00,115.00
             170.00,115.00 173.00,112.00 173.00,112.00
             176.82,120.73 171.33,120.22 169.00,127.00
             169.00,127.00 172.00,124.00 172.00,124.00
             172.00,124.00 180.00,121.00 180.00,121.00
             184.34,132.99 182.14,125.97 182.00,138.00
             178.88,132.28 180.08,132.12 181.00,126.00
             172.86,125.33 169.65,133.00 169.00,140.00
             169.00,140.00 174.00,129.00 174.00,129.00
             174.00,129.00 179.00,128.00 179.00,128.00
             177.88,136.47 178.65,136.68 174.00,144.00
             174.00,144.00 183.00,141.00 183.00,141.00
             183.00,141.00 184.00,135.00 184.00,135.00
             184.00,135.00 189.37,144.00 189.37,144.00
             189.37,144.00 192.72,152.01 192.72,152.01
             192.72,152.01 200.00,153.00 200.00,153.00
             200.00,153.00 220.86,151.98 220.86,151.98
             220.86,151.98 224.00,148.00 224.00,148.00
             224.00,148.00 229.00,149.00 229.00,149.00
             229.00,149.00 227.00,153.00 227.00,153.00
             227.00,153.00 236.00,153.00 236.00,153.00
             236.00,153.00 235.00,133.00 235.00,133.00
             236.51,137.57 236.88,140.22 237.00,145.00
             237.05,147.16 236.87,150.51 238.74,152.01
             241.28,154.06 248.93,153.32 247.85,145.10
             247.42,141.85 245.63,141.30 243.00,140.00
             243.00,140.00 242.00,143.00 242.00,143.00
             242.00,143.00 242.00,135.00 242.00,135.00
             236.07,128.96 239.30,123.90 247.00,123.00
             247.00,123.00 244.00,124.00 244.00,124.00
             244.00,124.00 252.00,129.00 252.00,129.00
             252.73,134.41 260.46,138.66 265.00,141.00
             265.73,144.42 266.02,144.22 269.00,146.00
             269.00,146.00 269.00,141.00 269.00,141.00
             269.00,141.00 266.00,142.00 266.00,142.00
             266.00,142.00 266.00,139.00 266.00,139.00
             266.00,139.00 269.00,140.00 269.00,140.00
             269.00,140.00 268.41,119.29 268.41,119.29
             268.41,119.29 266.00,117.00 266.00,117.00
             266.00,117.00 266.00,118.00 266.00,118.00
             266.00,118.00 268.00,118.00 268.00,118.00
             268.00,118.00 247.00,123.00 247.00,123.00
             247.00,123.00 251.00,122.00 251.00,122.00
             251.00,122.00 242.00,122.00 242.00,122.00
             242.00,122.00 246.00,111.00 246.00,111.00
             246.00,111.00 247.00,114.00 247.00,114.00
             247.00,114.00 249.00,109.00 249.00,109.00
             249.00,109.00 259.00,110.00 259.00,110.00
             260.01,106.26 258.69,104.32 257.00,101.00
             257.00,101.00 254.00,103.00 254.00,103.00
             254.00,103.00 251.00,102.00 251.00,102.00
             251.00,102.00 244.95,105.70 244.95,105.70
             244.95,105.70 238.00,120.00 238.00,120.00
             238.00,120.00 242.00,107.00 242.00,107.00
             240.56,103.09 240.52,102.37 237.00,100.00
             237.00,100.00 239.00,93.00 239.00,93.00
             239.00,93.00 242.00,96.00 242.00,96.00
             242.00,89.86 243.41,86.47 237.00,85.00
             236.61,75.84 237.92,67.83 232.00,60.00
             232.00,60.00 236.00,61.00 236.00,61.00
             235.87,56.15 236.29,53.91 231.00,53.00
             231.00,53.00 231.00,57.00 231.00,57.00
             231.00,57.00 230.00,53.00 230.00,53.00
             227.53,53.23 224.89,52.42 224.00,55.00
             224.00,55.00 218.00,53.00 218.00,53.00
             218.00,53.00 220.00,56.00 220.00,56.00
             220.00,56.00 219.00,56.00 219.00,56.00
             219.00,56.00 217.00,54.00 217.00,54.00
             217.00,54.00 205.00,53.03 205.00,53.03
             205.00,53.03 182.00,53.03 182.00,53.03
             182.00,53.03 172.00,53.03 172.00,53.03 Z
           M 240.00,53.00
           C 243.80,60.22 245.67,63.55 244.90,72.00
             244.90,72.00 243.49,80.00 243.49,80.00
             243.49,80.00 245.00,102.00 245.00,102.00
             248.02,101.10 252.19,100.77 254.00,98.00
             257.09,100.01 257.42,99.55 261.00,99.00
             261.00,99.00 260.00,96.00 260.00,96.00
             263.40,99.75 263.85,101.17 269.00,102.00
             269.00,102.00 266.00,101.00 266.00,101.00
             266.00,101.00 269.00,99.00 269.00,99.00
             269.00,99.00 269.00,96.00 269.00,96.00
             269.00,96.00 265.00,96.00 265.00,96.00
             265.00,96.00 269.00,95.00 269.00,95.00
             269.00,95.00 269.00,91.00 269.00,91.00
             265.44,93.38 258.99,94.42 258.00,98.00
             253.55,94.54 253.90,94.07 252.19,89.00
             247.76,75.91 250.02,65.53 255.00,53.00
             255.00,53.00 240.00,53.00 240.00,53.00 Z
           M 229.00,60.00
           C 229.00,60.00 229.00,61.00 229.00,61.00
             229.00,61.00 228.00,60.00 228.00,60.00
             228.00,60.00 229.00,60.00 229.00,60.00 Z
           M 248.00,79.00
           C 248.00,79.00 248.00,80.00 248.00,80.00
             248.00,80.00 247.00,79.00 247.00,79.00
             247.00,79.00 248.00,79.00 248.00,79.00 Z
           M 246.00,80.00
           C 246.00,80.00 246.00,81.00 246.00,81.00
             246.00,81.00 245.00,80.00 245.00,80.00
             245.00,80.00 246.00,80.00 246.00,80.00 Z
           M 249.00,83.00
           C 249.00,83.00 249.00,84.00 249.00,84.00
             249.00,84.00 248.00,83.00 248.00,83.00
             248.00,83.00 249.00,83.00 249.00,83.00 Z
           M 234.00,91.00
           C 234.00,91.00 229.00,93.00 229.00,93.00
             229.00,93.00 234.00,91.00 234.00,91.00 Z
           M 200.00,93.00
           C 196.97,97.38 195.32,96.78 192.00,93.00
             192.00,93.00 200.00,93.00 200.00,93.00 Z
           M 265.00,96.00
           C 265.00,96.00 265.00,97.00 265.00,97.00
             265.00,97.00 264.00,96.00 264.00,96.00
             264.00,96.00 265.00,96.00 265.00,96.00 Z
           M 264.00,97.00
           C 264.00,97.00 264.00,98.00 264.00,98.00
             264.00,98.00 263.00,97.00 263.00,97.00
             263.00,97.00 264.00,97.00 264.00,97.00 Z
           M 222.00,104.00
           C 222.00,104.00 226.00,114.00 226.00,114.00
             221.33,112.37 218.91,108.40 222.00,104.00 Z
           M 253.00,108.00
           C 253.00,108.00 253.00,109.00 253.00,109.00
             253.00,109.00 252.00,108.00 252.00,108.00
             252.00,108.00 253.00,108.00 253.00,108.00 Z
           M 178.00,112.00
           C 178.00,112.00 178.00,113.00 178.00,113.00
             178.00,113.00 177.00,112.00 177.00,112.00
             177.00,112.00 178.00,112.00 178.00,112.00 Z
           M 176.00,121.00
           C 176.00,121.00 176.00,122.00 176.00,122.00
             176.00,122.00 175.00,121.00 175.00,121.00
             175.00,121.00 176.00,121.00 176.00,121.00 Z
           M 175.00,122.00
           C 175.00,122.00 175.00,123.00 175.00,123.00
             175.00,123.00 174.00,122.00 174.00,122.00
             174.00,122.00 175.00,122.00 175.00,122.00 Z
           M 174.00,123.00
           C 174.00,123.00 174.00,124.00 174.00,124.00
             174.00,124.00 173.00,123.00 173.00,123.00
             173.00,123.00 174.00,123.00 174.00,123.00 Z
           M 259.00,128.00
           C 259.00,128.00 259.00,129.00 259.00,129.00
             259.00,129.00 258.00,128.00 258.00,128.00
             258.00,128.00 259.00,128.00 259.00,128.00 Z
           M 185.00,131.00
           C 185.00,131.00 185.00,132.00 185.00,132.00
             185.00,132.00 184.00,131.00 184.00,131.00
             184.00,131.00 185.00,131.00 185.00,131.00 Z
           M 189.00,133.00
           C 189.00,133.00 189.00,134.00 189.00,134.00
             189.00,134.00 188.00,133.00 188.00,133.00
             188.00,133.00 189.00,133.00 189.00,133.00 Z
           M 192.00,136.00
           C 203.25,139.36 202.93,138.65 209.00,149.84
             206.98,150.24 206.22,150.56 204.18,149.84
             200.82,148.23 191.82,139.56 192.00,136.00 Z
           M 181.00,138.00
           C 181.00,138.00 176.00,143.00 176.00,143.00
             176.00,143.00 179.00,138.00 179.00,138.00
             179.00,138.00 181.00,138.00 181.00,138.00 Z
           M 176.00,145.00
           C 176.00,145.00 177.00,152.00 177.00,152.00
             177.00,152.00 176.00,145.00 176.00,145.00 Z
           M 244.00,148.00
           C 244.00,148.00 246.00,151.00 246.00,151.00
             246.00,151.00 244.00,148.00 244.00,148.00 Z
           M 245.00,151.00
           C 245.00,151.00 245.00,152.00 245.00,152.00
             245.00,152.00 244.00,151.00 244.00,151.00
             244.00,151.00 245.00,151.00 245.00,151.00 Z" />
</svg>
