<?xml version="1.0" encoding="utf-8"?>
<!-- Svg Vector Icons : http://www.onlinewebfonts.com/icon -->
<!DOCTYPE svg PUBLIC "-//W3C//DTD SVG 1.1//EN" "http://www.w3.org/Graphics/SVG/1.1/DTD/svg11.dtd">
<svg version="1.1" xmlns="http://www.w3.org/2000/svg" xmlns:xlink="http://www.w3.org/1999/xlink" x="0px" y="0px" viewBox="0 0 1000 1000" enable-background="new 0 0 1000 1000" xml:space="preserve">
<metadata> Svg Vector Icons : http://www.onlinewebfonts.com/icon </metadata>
<g><g transform="translate(0.000000,511.000000) scale(0.100000,-0.100000)" fill="#1A7000" ><path d="M556.1,4068.3C424,4033.8,295.7,3949.5,223,3850C90.9,3670,96.6,3861.5,102.3,809.6l5.7-2755.1l46-99.6c57.4-130.2,195.3-256.6,333.1-310.2c111.1-40.2,116.8-40.2,1937.6-40.2h1828.5v-440.4v-440.4h-673.9h-675.9l3.8-206.8c1.9-113,3.8-245.1,3.8-294.9l1.9-91.9h2086.9h2087v296.8v296.8h-670.1h-670.1v440.4v440.4h1828.5c1818.9,0,1828.5,0,1935.7,40.2c139.8,51.7,260.4,164.7,327.4,302.5l53.6,107.2l5.7,2755.1c5.7,3074.9,13.4,2871.9-130.2,3051.9c-53.6,68.9-111.1,114.9-204.9,160.8l-130.2,63.2l-4394.1,3.8C1597.7,4091.2,625,4087.4,556.1,4068.3z M9453.4,3738.9c28.7-21.1,70.8-63.2,91.9-91.9c40.2-51.7,40.2-59.4,45.9-2781.9l3.8-2728.3l-40.2-72.8c-23-40.2-72.8-90-113-113l-72.8-40.2H5001.9c-4340.4,0-4369.2,0-4443.8,38.3c-49.8,24.9-90,65.1-114.9,114.9c-38.3,74.7-38.3,107.2-38.3,2776.2c0,2245.8,3.8,2711.1,26.8,2762.8c32.6,76.6,105.3,143.6,176.2,166.6c30.6,9.6,2002.7,15.3,4424.7,13.4l4369.2-3.8L9453.4,3738.9z M5440.3-2902.9v-354.2h-440.4h-440.4v354.2v354.2h440.4h440.4V-2902.9z"/><path d="M653.7,849.8V-1802h4346.2h4346.2V849.8v2651.7H4999.9H653.7V849.8z M3851.2,1636.7c178.1-67,237.4-189.5,237.4-499.7c0-210.6-24.9-321.7-88.1-402.1c-74.7-93.8-147.4-111-522.7-122.5l-344.6-11.5l-5.7-252.7l-5.7-254.6H2980h-143.6V890v796.5l465.2-7.7C3673.1,1671.1,3782.2,1663.5,3851.2,1636.7z M4578.7,1357.1v-325.5h373.4h373.4v325.5v327.4l149.3-5.8l147.4-5.7l5.7-788.8l3.8-790.7h-153.2h-153.2v344.6v344.6l-367.6-3.8l-369.5-5.7l-5.7-338.9l-3.8-340.8h-143.6h-143.6v794.6v794.6h143.6h143.6V1357.1z M6786.3,1663.5c185.7-26.8,268-74.7,321.7-185.7c42.1-82.3,46-118.7,46-340.8c0-308.3-32.6-402.1-166.6-472.9c-74.7-40.2-112.9-44-430.8-49.8l-350.4-7.7V350.1V93.5H6053h-153.2v781.2c0,430.8,5.7,788.8,13.4,794.6C5932.4,1690.3,6640.8,1684.6,6786.3,1663.5z"/><path d="M3123.6,1137V859.3h248.9c314,0,371.4,19.2,404,137.9c21.1,80.4,13.4,275.7-13.4,346.5c-21.1,57.4-91.9,70.8-373.3,70.8h-266.1V1137z"/><path d="M6206.2,1137V859.3h235.5c394.4,0,425,23,413.6,315.9c-9.6,235.5-15.3,239.3-373.4,239.3h-275.7V1137z"/></g></g>
</svg>