<?xml version="1.0" standalone="no"?>
<!DOCTYPE svg PUBLIC "-//W3C//DTD SVG 20010904//EN"
 "http://www.w3.org/TR/2001/REC-SVG-20010904/DTD/svg10.dtd">
<svg version="1.0" xmlns="http://www.w3.org/2000/svg"
 width="auto" height="auto" viewBox="0 0 1280.000000 1080.000000"
 preserveAspectRatio="xMidYMid meet">
<g transform="translate(0.000000,1080.000000) scale(0.100000,-0.100000)"
fill="#1A7000" stroke="none">
<path d="M1722 10789 c-189 -32 -381 -144 -503 -292 -57 -70 -138 -230 -166
-327 -17 -62 -18 -187 -20 -2954 l-3 -2888 -33 -17 c-17 -10 -236 -149 -486
-310 -249 -161 -461 -295 -470 -299 -9 -3 -18 -9 -21 -13 -3 -4 -3 -117 0
-250 5 -232 7 -248 32 -317 39 -107 83 -177 168 -263 61 -61 94 -85 170 -123
160 -79 116 -76 1172 -76 l937 0 3 -1042 c4 -1169 -2 -1082 79 -1247 33 -66
60 -103 123 -166 90 -90 152 -130 271 -172 l80 -28 1285 0 1285 0 78 27 c116
39 204 96 289 187 109 116 165 240 184 408 l7 63 1561 2 1561 3 80 23 c104 30
250 100 331 157 186 133 331 345 389 570 28 108 34 244 35 732 l0 482 1048 3
1047 3 80 28 c192 68 326 185 411 361 56 115 65 181 62 430 l-3 218 -505 301
-505 301 0 2890 0 2891 -22 85 c-77 291 -290 511 -585 602 l-73 23 -4660 1
c-2687 1 -4683 -2 -4713 -7z m9383 -202 c233 -68 408 -247 460 -469 13 -59 15
-379 13 -2930 l-3 -2863 -717 -3 -718 -2 0 145 0 145 490 2 490 3 0 2725 0
2725 -4717 0 -4718 0 0 -2725 0 -2725 408 -3 407 -2 0 -145 0 -145 -632 2
-633 3 -3 2870 c-2 3182 -8 2916 65 3065 27 56 56 95 117 155 110 110 213 163
361 185 28 4 2124 7 4660 6 4374 -1 4613 -2 4670 -19z m-165 -3247 l0 -2540
-400 0 -400 0 0 1893 c0 1088 -4 1932 -10 1987 -11 119 -49 250 -101 354 -59
116 -92 160 -193 261 -138 138 -282 219 -472 267 l-89 23 -2185 0 -2185 0 -88
-22 c-188 -48 -334 -130 -470 -262 -134 -129 -223 -285 -278 -481 l-24 -85 -3
-1472 -3 -1472 -502 -3 -502 -3 -73 -27 c-104 -38 -187 -92 -262 -169 -76 -77
-122 -150 -156 -248 -33 -95 -43 -185 -44 -378 l0 -163 -315 0 -315 0 0 2540
0 2540 4535 0 4535 0 0 -2540z m-8440 -4160 l0 -330 -907 0 c-569 0 -931 4
-971 10 -175 29 -328 157 -387 325 -18 51 -34 278 -22 310 6 13 131 15 1147
15 l1140 0 0 -330z m10098 235 c2 -49 -2 -119 -8 -155 -33 -199 -206 -367
-410 -400 -41 -6 -424 -10 -1052 -10 l-988 0 0 330 0 330 1228 -2 1227 -3 3
-90z"/>
<path d="M6330 10458 c-64 -33 -85 -67 -85 -138 0 -43 5 -66 21 -87 24 -33 97
-73 134 -73 37 0 110 40 134 73 16 21 21 44 21 87 0 43 -5 66 -21 87 -24 33
-97 73 -134 73 -14 0 -46 -10 -70 -22z"/>
</g>
</svg>
