<?xml version="1.0" standalone="no"?>
<!DOCTYPE svg PUBLIC "-//W3C//DTD SVG 20010904//EN"
 "http://www.w3.org/TR/2001/REC-SVG-20010904/DTD/svg10.dtd">
<svg version="1.0" xmlns="http://www.w3.org/2000/svg"
 width="" height="" viewBox="0 0 1280.000000 914.000000"
 preserveAspectRatio="xMidYMid meet">
<g transform="translate(0.000000,914.000000) scale(0.100000,-0.100000)"
fill="#1A7000" stroke="none">
<path d="M4104 6966 c-68 -30 -64 31 -64 -923 l0 -863 -1452 0 c-1425 0 -1452
0 -1492 -20 -77 -37 -70 89 -76 -1435 l-5 -1370 -289 -3 c-193 -1 -294 -6
-303 -13 -9 -8 -13 -36 -13 -88 l1 -76 77 -45 c89 -52 208 -95 307 -110 49 -7
776 -10 2385 -8 l2315 3 76 22 c88 25 181 70 228 108 30 26 31 30 31 104 0 47
-5 82 -12 89 -9 9 -90 12 -305 12 l-293 0 0 270 0 270 661 0 661 0 -5 -32 c-3
-18 -16 -175 -29 -348 -26 -356 -13 -316 -126 -402 -61 -47 -74 -72 -50 -96
17 -17 1549 -17 1566 0 24 24 11 49 -50 96 -33 26 -70 54 -81 63 -21 16 -19 3
-70 667 l-4 52 713 0 713 0 3 -392 c3 -388 3 -393 26 -429 45 -73 -14 -69
1004 -69 1018 0 956 -4 1005 69 l23 34 0 1316 c0 1296 0 1317 -20 1349 -11 18
-34 41 -52 52 -32 19 -52 20 -495 20 l-463 0 0 1025 c0 1138 4 1072 -65 1101
-50 21 -5933 20 -5981 0z"/>
<path d="M11239 3691 l-29 -29 0 -797 0 -797 29 -29 29 -29 452 0 452 0 29 29
29 29 0 792 c0 839 0 836 -45 854 -9 3 -219 6 -467 6 l-450 0 -29 -29z"/>
</g>
</svg>
