<?xml version="1.0" standalone="no"?>
<!DOCTYPE svg PUBLIC "-//W3C//DTD SVG 20010904//EN"
 "http://www.w3.org/TR/2001/REC-SVG-20010904/DTD/svg10.dtd">
<svg version="1.0" xmlns="http://www.w3.org/2000/svg">
<g transform="translate(0.000000,1280.000000) scale(0.100000,-0.100000)">
<path d="M1060 12669 c-165 -20 -315 -128 -393 -284 -40 -81 -56 -155 -55
-265 2 -181 46 -304 207 -569 107 -176 135 -232 174 -343 37 -105 59 -216 68
-342 l7 -95 -49 -48 c-31 -30 -55 -65 -64 -93 l-15 -45 -152 -5 -152 -5 -263
-281 c-145 -154 -275 -295 -290 -313 l-28 -33 0 -1526 c0 -1075 3 -1539 11
-1567 17 -61 93 -130 160 -145 39 -8 297 -10 939 -8 841 3 887 4 920 22 49 26
79 55 101 98 18 36 19 83 19 1590 l-1 1553 -220 235 c-122 129 -253 268 -291
308 l-70 72 -143 0 c-156 0 -154 -1 -175 64 -7 21 -32 57 -56 81 -44 41 -44
42 -44 111 0 145 47 345 116 489 18 39 70 131 115 205 167 276 209 385 217
560 5 129 -8 200 -55 298 -33 67 -125 168 -191 210 -94 60 -221 86 -347 71z
m167 -60 c162 -34 292 -154 349 -319 28 -83 30 -233 5 -330 -23 -88 -89 -225
-181 -376 -175 -288 -232 -450 -251 -706 -4 -54 -10 -98 -14 -98 -4 0 -13 55
-19 122 -23 226 -78 392 -199 597 -193 326 -223 392 -243 534 -52 358 224 645
553 576z m-82 -1964 c0 -24 -4 -47 -10 -50 -6 -4 -10 15 -10 50 0 35 4 54 10
50 6 -3 10 -26 10 -50z m-85 -16 c0 -42 -1 -44 -30 -44 -37 0 -42 19 -15 63
27 44 45 37 45 -19z m190 28 c8 -12 16 -34 17 -47 3 -22 -1 -25 -27 -25 -29 0
-30 2 -33 48 -2 37 0 47 12 47 9 0 22 -10 31 -23z m-105 -367 c0 -56 46 -72
57 -20 8 42 37 39 68 -9 35 -52 42 -101 21 -156 -47 -121 -194 -150 -280 -54
-57 62 -61 150 -11 215 30 39 58 41 63 6 7 -51 62 -33 62 20 0 17 4 27 10 23
6 -3 10 -15 10 -25z"/>

</g>
</svg>
