<?xml version="1.0" encoding="UTF-8" standalone="no"?>
<!DOCTYPE svg PUBLIC "-//W3C//DTD SVG 20010904//EN"
              "http://www.w3.org/TR/2001/REC-SVG-20010904/DTD/svg10.dtd">

<svg xmlns="http://www.w3.org/2000/svg"
     width="180px" height="70px"
     viewBox="0 0 696 215">
  <path id="Selection #3"
        fill="black" stroke="green" stroke-width="9px"
        d="M 0.00,5.96
           C 0.00,5.96 0.00,215.00 0.00,215.00
             0.00,215.00 312.00,215.00 312.00,215.00
             323.07,214.98 322.82,211.52 331.00,204.42
             331.00,204.42 362.00,175.01 362.00,175.01
             368.10,169.06 373.83,167.13 374.00,158.00
             374.07,154.12 374.47,138.92 375.60,136.04
             377.20,131.97 381.64,131.01 385.00,128.87
             385.00,128.87 394.00,122.15 394.00,122.15
             398.57,119.91 407.03,121.42 412.00,122.15
             423.89,123.84 438.26,127.90 449.00,133.27
             449.00,133.27 498.00,160.13 498.00,160.13
             506.06,163.58 518.23,165.89 527.00,166.00
             546.79,166.23 562.07,160.10 574.47,144.00
             590.46,123.25 585.54,90.03 566.00,73.30
             552.40,61.65 539.86,60.81 523.00,61.00
             504.23,61.22 487.65,71.12 472.00,80.40
             456.56,89.55 442.63,97.68 425.00,102.11
             420.22,103.31 401.17,106.38 397.00,105.84
             392.70,105.28 390.22,102.04 387.00,99.47
             382.61,95.95 380.51,94.87 374.96,94.00
             374.96,94.00 374.96,82.00 374.96,82.00
             374.96,82.00 374.04,74.00 374.04,74.00
             374.04,74.00 372.98,63.00 372.98,63.00
             372.98,63.00 359.00,48.83 359.00,48.83
             359.00,48.83 336.00,27.01 336.00,27.01
             336.00,27.01 311.00,5.60 311.00,5.60
             311.00,5.60 304.00,5.00 304.00,5.00
             304.00,5.00 27.00,5.00 27.00,5.00
             27.00,5.00 15.00,5.96 15.00,5.96
             15.00,5.96 0.00,5.96 0.00,5.96 Z
           M 396.00,114.00
           C 400.11,112.32 410.91,111.51 416.00,110.73
             425.19,109.31 434.35,106.98 443.00,103.55
             477.55,89.84 508.97,55.14 549.00,71.45
             578.80,83.59 586.78,121.59 564.56,144.71
             551.88,157.91 540.11,159.20 523.00,159.00
             503.43,158.77 479.84,142.26 463.00,132.86
             442.33,121.33 419.82,114.07 396.00,114.00 Z
           M 345.00,105.00
           C 338.94,108.86 340.36,111.91 347.00,113.00
             342.68,115.07 335.64,117.66 345.00,121.00
             340.27,136.71 314.46,129.28 316.20,112.00
             317.64,97.58 338.03,90.64 345.00,105.00 Z
           M 383.00,105.00
           C 383.00,105.00 375.00,105.00 375.00,105.00
             375.00,105.00 376.00,100.00 376.00,100.00
             376.00,100.00 383.00,105.00 383.00,105.00 Z
           M 384.00,113.00
           C 384.00,113.00 377.00,114.00 377.00,114.00
             377.00,114.00 384.00,113.00 384.00,113.00 Z
           M 383.00,121.00
           C 380.78,125.16 379.57,125.47 375.00,126.00
             375.91,120.71 378.15,121.13 383.00,121.00 Z" />
</svg>
