<?xml version="1.0" standalone="no"?>
<!DOCTYPE svg PUBLIC "-//W3C//DTD SVG 20010904//EN"
 "http://www.w3.org/TR/2001/REC-SVG-20010904/DTD/svg10.dtd">
<svg version="1.0" xmlns="http://www.w3.org/2000/svg"
 width="1120.000000pt" height="1280.000000pt" viewBox="0 0 1120.000000 1280.000000"
 preserveAspectRatio="xMidYMid meet">
<g transform="translate(0.000000,1280.000000) scale(0.100000,-0.100000)"
fill="#000000" stroke="none">
<path d="M1125 12669 c-165 -20 -315 -128 -393 -284 -40 -81 -56 -155 -55
-265 2 -181 46 -304 207 -569 107 -176 135 -232 174 -343 37 -105 59 -216 68
-342 l7 -95 -49 -48 c-31 -30 -55 -65 -64 -93 l-15 -45 -152 -5 -152 -5 -263
-281 c-145 -154 -275 -295 -290 -313 l-28 -33 0 -1526 c0 -1075 3 -1539 11
-1567 17 -61 93 -130 160 -145 39 -8 297 -10 939 -8 841 3 887 4 920 22 49 26
79 55 101 98 18 36 19 83 19 1590 l-1 1553 -220 235 c-122 129 -253 268 -291
308 l-70 72 -143 0 c-156 0 -154 -1 -175 64 -7 21 -32 57 -56 81 -44 41 -44
42 -44 111 0 145 47 345 116 489 18 39 70 131 115 205 167 276 209 385 217
560 5 129 -8 200 -55 298 -33 67 -125 168 -191 210 -94 60 -221 86 -347 71z
m167 -60 c162 -34 292 -154 349 -319 28 -83 30 -233 5 -330 -23 -88 -89 -225
-181 -376 -175 -288 -232 -450 -251 -706 -4 -54 -10 -98 -14 -98 -4 0 -13 55
-19 122 -23 226 -78 392 -199 597 -193 326 -223 392 -243 534 -52 358 224 645
553 576z m-82 -1964 c0 -24 -4 -47 -10 -50 -6 -4 -10 15 -10 50 0 35 4 54 10
50 6 -3 10 -26 10 -50z m-85 -16 c0 -42 -1 -44 -30 -44 -37 0 -42 19 -15 63
27 44 45 37 45 -19z m190 28 c8 -12 16 -34 17 -47 3 -22 -1 -25 -27 -25 -29 0
-30 2 -33 48 -2 37 0 47 12 47 9 0 22 -10 31 -23z m-105 -367 c0 -56 46 -72
57 -20 8 42 37 39 68 -9 35 -52 42 -101 21 -156 -47 -121 -194 -150 -280 -54
-57 62 -61 150 -11 215 30 39 58 41 63 6 7 -51 62 -33 62 20 0 17 4 27 10 23
6 -3 10 -15 10 -25z"/>
<path d="M4055 12670 c-207 -28 -380 -192 -431 -407 -19 -82 -14 -246 11 -338
25 -89 82 -205 191 -387 163 -270 220 -436 231 -663 l6 -120 -27 -15 c-36 -19
-64 -58 -84 -121 l-17 -51 -125 -41 c-247 -83 -432 -225 -572 -442 -67 -104
-109 -200 -147 -334 l-26 -96 -3 -1478 -2 -1477 1072 2 1073 3 0 1450 c0 1607
3 1519 -65 1707 -121 331 -401 592 -730 680 -45 12 -84 27 -86 32 -1 6 -8 31
-15 56 -8 32 -25 59 -61 94 l-51 50 7 90 c18 236 77 411 222 651 53 88 112
192 132 230 120 239 131 459 32 655 -96 190 -314 300 -535 270z m166 -60 c119
-23 227 -95 293 -195 63 -94 79 -153 80 -290 1 -183 -27 -260 -212 -570 -163
-273 -211 -414 -237 -702 -4 -40 -10 -71 -15 -68 -4 2 -10 48 -14 101 -16 231
-77 407 -227 659 -180 303 -208 374 -216 539 -7 130 6 195 54 289 94 180 293
275 494 237z m-81 -1966 c0 -34 -4 -53 -10 -49 -18 11 -12 105 7 105 2 0 3
-25 3 -56z m-80 -13 c0 -41 -3 -50 -21 -54 -50 -13 -60 21 -22 79 26 40 43 30
43 -25z m189 23 c22 -28 28 -69 12 -78 -5 -4 -21 -2 -35 4 -22 8 -26 16 -26
48 0 59 16 68 49 26z m-97 -401 c18 -22 37 -14 51 18 l12 31 28 -22 c38 -30
57 -71 57 -125 0 -171 -222 -233 -312 -87 -42 69 -19 189 42 222 16 8 21 5 32
-17 16 -33 51 -38 56 -8 6 40 15 51 20 25 2 -14 9 -31 14 -37z"/>
<path d="M7000 12668 c-86 -8 -167 -40 -237 -92 -72 -54 -93 -76 -138 -151
-115 -193 -109 -429 19 -684 21 -40 68 -123 105 -185 105 -172 128 -215 165
-312 41 -106 72 -252 82 -382 l7 -93 -47 -42 c-32 -29 -52 -58 -64 -92 l-18
-50 -329 -5 c-323 -5 -331 -6 -379 -29 -64 -32 -113 -82 -145 -150 l-26 -56 0
-1820 0 -1820 1073 -3 1072 -2 -2 1832 -3 1833 -27 51 c-31 59 -84 108 -147
138 -43 20 -65 21 -373 24 l-327 3 -16 48 c-15 45 -76 121 -98 121 -6 0 -8 45
-4 123 11 229 68 395 229 662 54 89 115 199 137 246 133 284 101 571 -84 748
-116 112 -254 157 -425 139z m156 -59 c169 -31 314 -169 360 -343 19 -70 18
-225 -2 -305 -23 -92 -75 -200 -189 -391 -159 -266 -216 -422 -237 -650 -13
-147 -19 -162 -30 -75 -42 337 -81 448 -257 739 -162 266 -196 363 -195 541 0
101 4 130 24 180 88 228 293 347 526 304z m-76 -1971 c0 -20 -4 -40 -10 -43
-6 -4 -10 16 -10 52 0 41 3 54 10 43 5 -8 10 -32 10 -52z m-82 13 c2 -13 1
-34 -3 -48 -4 -19 -11 -24 -33 -21 -23 3 -27 7 -25 32 2 31 30 69 47 63 6 -2
12 -14 14 -26z m193 -10 c22 -41 15 -63 -20 -59 -24 3 -26 8 -29 51 -3 41 -1
48 14 45 9 -1 25 -18 35 -37z m-109 -371 c5 -39 43 -39 56 0 10 27 14 30 31
21 35 -19 65 -81 65 -136 0 -145 -163 -222 -274 -129 -42 36 -60 74 -60 129 0
54 19 95 57 125 l28 22 12 -31 c20 -47 63 -35 63 18 0 31 17 16 22 -19z"/>
<path d="M9935 12669 c-124 -12 -219 -62 -316 -166 -104 -113 -144 -234 -137
-413 8 -175 50 -284 217 -560 45 -74 97 -166 115 -205 69 -144 116 -344 116
-489 0 -69 0 -70 -44 -111 -24 -24 -49 -60 -56 -81 -7 -22 -17 -45 -23 -51 -7
-10 -108 -13 -443 -13 l-434 0 0 -1940 0 -1940 1070 0 1070 0 5 23 c3 12 4
884 3 1937 l-3 1915 -440 5 -440 5 -15 45 c-9 28 -33 63 -64 93 l-49 48 7 95
c9 126 31 237 68 342 39 112 61 155 171 337 108 179 159 284 186 385 69 262
-3 507 -190 645 -105 77 -225 107 -374 94z m174 -64 c244 -58 392 -298 352
-572 -20 -142 -50 -208 -243 -534 -121 -205 -176 -371 -199 -597 -6 -67 -15
-122 -19 -122 -4 0 -10 44 -14 98 -19 254 -84 436 -253 709 -83 134 -156 288
-179 373 -25 97 -23 248 5 330 82 240 311 371 550 315z m-99 -1961 c0 -34 -4
-53 -10 -49 -18 11 -12 105 7 105 2 0 3 -25 3 -56z m-82 -11 c-3 -46 -4 -48
-33 -48 -26 0 -30 3 -27 25 3 33 29 70 48 70 12 0 14 -10 12 -47z m192 15 c27
-44 22 -63 -15 -63 -27 0 -30 4 -33 33 -7 68 16 81 48 30z m-110 -362 c0 -28
24 -51 45 -42 8 3 15 14 15 25 0 31 16 33 48 6 38 -32 56 -84 49 -142 -14
-124 -164 -190 -266 -116 -33 24 -71 98 -71 138 0 39 38 114 68 133 21 14 23
13 33 -17 9 -24 16 -31 33 -29 16 2 22 11 24 36 4 37 22 44 22 8z"/>
<path d="M1084 6085 c-270 -59 -444 -329 -404 -627 21 -152 60 -246 200 -478
109 -181 145 -253 181 -359 36 -106 57 -217 65 -340 l6 -96 -45 -37 c-33 -27
-50 -51 -62 -88 -12 -36 -23 -51 -38 -55 -12 -3 -164 -6 -337 -7 l-315 -3 -55
-31 c-64 -36 -122 -107 -142 -173 -11 -38 -13 -355 -13 -1741 l0 -1695 28 -57
c32 -65 89 -121 156 -152 46 -21 49 -21 876 -21 663 0 839 3 876 13 66 20 137
78 173 142 l31 55 0 1730 0 1730 -22 40 c-28 53 -98 120 -148 142 -35 16 -81
19 -369 23 -279 4 -330 7 -336 20 -5 8 -16 35 -26 59 -10 24 -35 57 -57 75
l-40 31 6 115 c11 218 70 388 219 637 180 300 228 428 228 608 0 163 -51 294
-156 400 -125 127 -302 179 -480 140z m276 -74 c214 -82 333 -300 299 -545
-19 -146 -52 -221 -207 -481 -157 -263 -212 -415 -234 -649 -6 -67 -14 -125
-18 -129 -4 -4 -13 47 -19 114 -14 139 -47 279 -91 389 -31 77 -67 143 -203
374 -83 140 -119 225 -142 331 -60 282 80 538 334 611 67 19 212 12 281 -15z
m-150 -1947 c0 -24 -4 -44 -10 -44 -5 0 -10 23 -10 51 0 31 4 48 10 44 6 -3
10 -26 10 -51z m-82 -3 c4 -39 -13 -63 -42 -59 -16 2 -21 9 -19 32 2 31 30 69
47 63 6 -2 12 -18 14 -36z m186 17 c25 -40 28 -65 10 -72 -36 -14 -54 3 -54
50 0 50 20 60 44 22z m-104 -372 c0 -33 25 -53 45 -36 8 7 15 18 15 26 0 49
60 6 86 -62 53 -139 -90 -269 -230 -210 -101 42 -127 193 -47 270 31 30 51 28
51 -5 0 -11 7 -22 15 -25 21 -9 45 14 45 42 0 13 5 24 10 24 6 0 10 -11 10
-24z"/>
<path d="M4031 6089 c-170 -28 -328 -170 -393 -350 -33 -94 -33 -292 0 -399
35 -110 77 -197 179 -365 50 -83 104 -177 121 -210 70 -140 122 -355 122 -503
l0 -74 -44 -42 c-24 -24 -49 -60 -56 -82 -7 -21 -17 -45 -23 -51 -7 -10 -70
-13 -251 -13 l-241 0 -192 -192 -193 -193 0 -1550 0 -1551 198 -197 198 -197
679 0 679 0 198 198 198 198 0 1544 0 1545 -198 198 -197 197 -235 0 c-129 0
-240 4 -246 8 -5 4 -18 28 -27 53 -10 27 -36 64 -62 88 -51 48 -52 53 -35 206
13 110 49 250 91 351 17 41 77 150 132 242 174 290 220 411 221 587 1 178 -44
296 -159 410 -127 127 -280 174 -464 144z m208 -60 c79 -18 154 -61 217 -123
156 -156 187 -392 84 -639 -17 -41 -79 -155 -137 -254 -161 -269 -220 -420
-244 -616 -29 -238 -30 -240 -48 -52 -21 227 -77 380 -238 651 -182 304 -198
351 -198 549 1 122 4 147 23 194 61 144 174 248 313 285 64 17 166 20 228 5z
m-99 -1959 c0 -27 -4 -50 -10 -50 -11 0 -14 59 -4 84 10 27 14 18 14 -34z
m-80 -15 c0 -49 -19 -67 -49 -48 -18 12 -16 37 5 71 25 38 44 28 44 -23z m195
11 c20 -37 15 -66 -13 -66 -27 0 -42 20 -42 55 0 56 28 62 55 11z m-110 -368
c12 -41 46 -46 55 -9 7 33 21 36 48 11 39 -37 55 -79 50 -137 -8 -89 -62 -143
-152 -151 -126 -10 -216 107 -171 223 23 62 85 110 85 66 0 -10 7 -24 15 -31
20 -17 45 3 45 36 0 34 14 30 25 -8z"/>
<path d="M6954 6085 c-99 -21 -172 -62 -249 -140 -115 -114 -160 -232 -159
-410 1 -176 47 -297 221 -587 55 -92 115 -201 132 -242 42 -101 78 -241 91
-351 17 -152 16 -155 -39 -211 -32 -33 -53 -64 -62 -94 -17 -62 -21 -66 -93
-84 -163 -40 -340 -142 -469 -269 -155 -152 -253 -328 -310 -557 -21 -84 -21
-99 -24 -1547 l-4 -1462 23 -6 c13 -3 496 -4 1073 -3 l1050 3 3 1420 c2 1034
0 1444 -8 1510 -37 286 -197 559 -429 736 -84 64 -242 141 -351 172 l-85 24
-19 58 c-13 41 -31 70 -62 101 l-44 42 0 74 c0 148 52 363 122 503 17 33 70
125 118 205 176 292 218 417 208 614 -12 206 -121 379 -293 461 -109 53 -223
66 -341 40z m231 -60 c142 -37 255 -140 317 -286 19 -47 22 -72 23 -194 0
-198 -16 -245 -198 -549 -161 -271 -217 -425 -239 -656 -17 -182 -18 -180 -47
57 -24 196 -83 347 -244 616 -58 99 -120 213 -137 254 -103 247 -72 483 84
639 61 61 139 106 213 123 60 14 164 12 228 -4z m-105 -1967 c0 -21 -4 -38
-10 -38 -5 0 -10 24 -10 53 0 37 3 48 10 37 5 -8 10 -32 10 -52z m-82 13 c7
-47 -6 -71 -38 -71 -36 0 -40 25 -13 71 20 34 47 34 51 0z m186 7 c8 -13 18
-36 22 -51 6 -27 5 -28 -27 -25 -33 3 -34 5 -37 51 -2 37 0 47 12 47 9 0 22
-10 30 -22z m-104 -372 c0 -33 25 -53 45 -36 8 7 15 21 15 31 0 44 62 -4 85
-66 45 -116 -45 -233 -171 -223 -90 8 -144 62 -152 151 -5 58 11 100 50 137
27 25 41 22 48 -11 9 -37 43 -32 55 9 11 38 25 42 25 8z"/>
<path d="M9900 6089 c-87 -14 -194 -72 -264 -144 -105 -106 -156 -237 -156
-400 0 -180 48 -308 228 -608 149 -249 208 -419 219 -637 l6 -115 -40 -31
c-22 -18 -47 -51 -57 -75 -10 -24 -21 -51 -26 -59 -6 -12 -37 -16 -158 -20
l-151 -5 -285 -305 -286 -305 0 -1556 0 -1557 33 -48 c21 -32 48 -56 82 -74
l49 -25 911 0 910 0 42 22 c50 27 100 86 113 133 6 22 10 602 10 1561 l0 1525
-22 30 c-13 17 -144 159 -292 317 l-268 286 -151 3 -151 3 -18 50 c-12 33 -34
64 -65 92 l-46 42 7 98 c8 124 35 254 75 363 32 87 76 171 214 404 121 204
161 328 161 496 -1 160 -53 291 -158 396 -123 123 -283 172 -466 143z m217
-63 c84 -22 144 -57 208 -121 155 -155 187 -394 84 -641 -16 -39 -75 -147
-130 -240 -107 -179 -142 -245 -177 -334 -37 -92 -70 -240 -83 -369 -6 -67
-15 -118 -19 -114 -4 4 -12 62 -18 129 -23 235 -77 386 -237 654 -170 285
-208 387 -207 560 0 152 46 267 145 363 110 106 286 152 434 113z m-107 -1956
c0 -27 -4 -50 -10 -50 -11 0 -14 83 -3 93 12 12 13 8 13 -43z m-80 -14 c0 -47
-18 -64 -54 -50 -18 7 -15 32 10 72 24 38 44 28 44 -22z m184 25 c24 -26 26
-74 3 -79 -27 -6 -47 17 -47 53 0 48 15 58 44 26z m-104 -370 c0 -32 22 -56
45 -47 8 3 15 16 15 30 0 38 18 41 51 10 105 -101 31 -284 -115 -284 -119 0
-199 103 -166 213 21 69 90 122 90 68 0 -10 7 -24 15 -31 21 -18 45 4 45 41 0
16 5 29 10 29 6 0 10 -13 10 -29z"/>
</g>
</svg>
